<svg width="66" height="22" viewBox="0 0 66 22" fill="none" xmlns="http://www.w3.org/2000/svg">
<path d="M9.215 21.45C7.575 21.45 6.135 21.095 4.895 20.385C3.655 19.675 2.685 18.69 1.985 17.43C1.295 16.17 0.95 14.72 0.95 13.08C0.95 11.31 1.29 9.775 1.97 8.475C2.65 7.165 3.595 6.15 4.805 5.43C6.015 4.71 7.415 4.35 9.005 4.35C10.685 4.35 12.11 4.745 13.28 5.535C14.46 6.315 15.335 7.42 15.905 8.85C16.475 10.28 16.69 11.965 16.55 13.905H12.965V12.585C12.955 10.825 12.645 9.54 12.035 8.73C11.425 7.92 10.465 7.515 9.155 7.515C7.675 7.515 6.575 7.975 5.855 8.895C5.135 9.805 4.775 11.14 4.775 12.9C4.775 14.54 5.135 15.81 5.855 16.71C6.575 17.61 7.625 18.06 9.005 18.06C9.895 18.06 10.66 17.865 11.3 17.475C11.95 17.075 12.45 16.5 12.8 15.75L16.37 16.83C15.75 18.29 14.79 19.425 13.49 20.235C12.2 21.045 10.775 21.45 9.215 21.45ZM3.635 13.905V11.175H14.78V13.905H3.635ZM22.1909 21L16.3109 4.8H19.9259L24.0059 16.545L28.0709 4.8H31.7009L25.8209 21H22.1909ZM44.098 21V13.2C44.098 12.69 44.063 12.125 43.993 11.505C43.923 10.885 43.758 10.29 43.498 9.72C43.248 9.14 42.868 8.665 42.358 8.295C41.858 7.925 41.178 7.74 40.318 7.74C39.858 7.74 39.403 7.815 38.953 7.965C38.503 8.115 38.093 8.375 37.723 8.745C37.363 9.105 37.073 9.605 36.853 10.245C36.633 10.875 36.523 11.685 36.523 12.675L34.378 11.76C34.378 10.38 34.643 9.13 35.173 8.01C35.713 6.89 36.503 6 37.543 5.34C38.583 4.67 39.863 4.335 41.383 4.335C42.583 4.335 43.573 4.535 44.353 4.935C45.133 5.335 45.753 5.845 46.213 6.465C46.673 7.085 47.013 7.745 47.233 8.445C47.453 9.145 47.593 9.81 47.653 10.44C47.723 11.06 47.758 11.565 47.758 11.955V21H44.098ZM32.863 21V4.8H36.088V9.825H36.523V21H32.863ZM59.6673 21C58.5973 21.2 57.5473 21.285 56.5173 21.255C55.4973 21.235 54.5823 21.05 53.7723 20.7C52.9623 20.34 52.3473 19.775 51.9273 19.005C51.5573 18.305 51.3623 17.59 51.3423 16.86C51.3223 16.13 51.3123 15.305 51.3123 14.385V0.299998H54.9123V14.175C54.9123 14.825 54.9173 15.395 54.9273 15.885C54.9473 16.375 55.0523 16.775 55.2423 17.085C55.6023 17.685 56.1773 18.02 56.9673 18.09C57.7573 18.16 58.6573 18.12 59.6673 17.97V21ZM48.3723 7.635V4.8H59.6673V7.635H48.3723ZM62.2508 21V17.295H65.9558V21H62.2508Z" fill="white"/>
</svg>
